<svg viewBox="0 0 1024 1068.466" xmlns="http://www.w3.org/2000/svg"><path d="M635.46 726.023c-47.92-1.55-92.325-15.28-130.62-38.174l1.238.686c-52.358-26.446-86.906-43.898-177.33 10.33l-45.768-76.49c132.497-79.47 204.8-42.83 263.257-13.356 26.106 17.526 58.242 27.972 92.817 27.972 27.347 0 53.167-6.535 75.985-18.128l-.957.44 33.08 82.678c-32.894 14.447-71.17 23.21-111.394 24.037l-.312.004zm222.92-275.5H178.086V361.48H858.38zM607.276 235.928h-89.043v-85.482c0-22.13-17.94-40.07-40.07-40.07h-172.3V21.333h172.3c71.308 0 129.114 57.806 129.114 129.113v.516-.027zm-336.14-44.522h494.19l53.427 212.235-91.848 641.693H309.56L217.8 403.64zm424.738 89.044H340.592l-32.145 127.91 78.314 547.93h262.946l78.314-547.93z"/></svg>